<svg xmlns="http://www.w3.org/2000/svg" xmlns:xlink="http://www.w3.org/1999/xlink" preserveAspectRatio="xMidYMid" width="16" height="14" viewBox="0 0 16 14">
  <defs>
    <style>
      .cls-1 {
        fill: #fff;
        fill-rule: evenodd;
      }
    </style>
  </defs>
  <path d="M15.000,14.000 L11.000,14.000 C10.448,14.000 10.000,13.552 10.000,13.000 L10.000,7.000 L10.000,1.000 C10.000,0.448 10.448,-0.000 11.000,-0.000 L15.000,-0.000 C15.552,-0.000 16.000,0.448 16.000,1.000 L16.000,13.000 C16.000,13.552 15.552,14.000 15.000,14.000 ZM8.969,8.500 C8.969,8.500 2.625,13.156 2.000,13.594 C1.375,14.031 1.000,14.000 1.000,14.000 C0.448,14.000 -0.000,13.552 -0.000,13.000 L-0.000,11.000 L-0.000,7.000 L-0.000,3.000 L-0.000,1.000 C-0.000,0.448 0.448,-0.000 1.000,-0.000 C1.000,-0.000 1.375,-0.031 2.000,0.406 C2.625,0.844 8.969,5.500 8.969,5.500 C8.969,5.500 10.000,6.188 10.000,7.000 C10.000,7.812 8.969,8.500 8.969,8.500 Z" class="cls-1"/>
</svg>
