<svg xmlns="http://www.w3.org/2000/svg" xmlns:xlink="http://www.w3.org/1999/xlink" preserveAspectRatio="xMidYMid" width="22" height="22" viewBox="0 0 22 22">
  <defs>
    <style>
      .cls-1 {
        fill: #fff;
        fill-rule: evenodd;
      }
      .cls-1:hover {
      fill: orange;
      }
    </style>
  </defs>
  <path d="M22.000,10.975 L22.000,10.975 L22.000,10.975 C22.000,12.543 20.379,13.131 20.379,13.131 C20.379,13.131 4.223,20.824 3.143,21.412 C2.063,22.000 1.571,21.951 1.571,21.951 C0.704,21.951 -0.000,21.249 -0.000,20.383 L-0.000,10.975 L-0.000,1.568 C-0.000,0.702 0.704,-0.000 1.571,-0.000 C1.571,-0.000 2.063,-0.049 3.143,0.539 C4.223,1.127 20.379,8.820 20.379,8.820 C20.379,8.820 22.000,9.408 22.000,10.975 L22.000,10.975 L22.000,10.975 Z" class="cls-1"/>
</svg>
