<svg xmlns="http://www.w3.org/2000/svg" xmlns:xlink="http://www.w3.org/1999/xlink" preserveAspectRatio="xMidYMid" width="16" height="14" viewBox="0 0 16 14">
  <defs>
    <style>
      .cls-1 {
        fill: #fff;
        fill-rule: evenodd;
      }
    </style>
  </defs>
  <path d="M15.000,14.000 C15.000,14.000 14.625,14.031 14.000,13.594 C13.375,13.156 7.031,8.500 7.031,8.500 C7.031,8.500 6.000,7.812 6.000,7.000 C6.000,6.188 7.031,5.500 7.031,5.500 C7.031,5.500 13.375,0.844 14.000,0.406 C14.625,-0.031 15.000,-0.000 15.000,-0.000 C15.552,-0.000 16.000,0.448 16.000,1.000 L16.000,3.000 L16.000,7.000 L16.000,11.000 L16.000,13.000 C16.000,13.552 15.552,14.000 15.000,14.000 ZM5.000,14.000 L1.000,14.000 C0.448,14.000 0.000,13.552 0.000,13.000 L0.000,1.000 C0.000,0.448 0.448,-0.000 1.000,-0.000 L5.000,-0.000 C5.552,-0.000 6.000,0.448 6.000,1.000 L6.000,7.000 L6.000,13.000 C6.000,13.552 5.552,14.000 5.000,14.000 Z" class="cls-1"/>
</svg>
