<svg xmlns="http://www.w3.org/2000/svg" xmlns:xlink="http://www.w3.org/1999/xlink" preserveAspectRatio="xMidYMid" width="22.938" height="18" viewBox="0 0 22.938 18">
  <defs>
    <style>
      .cls-1 {
        fill: #3e4a43;
        fill-rule: evenodd;
      }
    </style>
  </defs>
  <path d="M22.535,8.561 L19.665,11.561 C19.385,11.854 19.018,12.000 18.651,12.000 L18.651,12.000 C18.284,12.000 17.917,11.854 17.637,11.561 L14.767,8.561 C14.357,8.131 14.235,7.487 14.456,6.926 C14.678,6.366 15.202,6.000 15.782,6.000 L17.216,6.000 L17.216,6.000 L17.216,6.000 L17.216,3.000 L2.869,3.000 L2.869,1.500 C2.869,0.672 3.512,0.000 4.304,0.000 L18.651,0.000 C19.443,0.000 20.086,0.672 20.086,1.500 L20.086,3.000 L20.086,4.500 L20.086,6.000 L20.086,6.000 L20.086,6.000 L21.520,6.000 C22.101,6.000 22.625,6.366 22.846,6.926 C23.069,7.487 22.945,8.131 22.535,8.561 ZM4.304,6.000 C4.671,6.000 5.038,6.147 5.319,6.440 L8.188,9.439 C8.598,9.869 8.722,10.513 8.499,11.074 C8.278,11.634 7.754,12.000 7.174,12.000 L5.739,12.000 L5.739,15.000 L20.086,15.000 L20.086,16.500 C20.086,17.328 19.443,18.000 18.651,18.000 L15.782,18.000 C15.782,18.000 15.782,18.000 15.782,18.000 L7.174,18.000 C7.173,18.000 7.173,18.000 7.173,18.000 L4.304,18.000 C3.512,18.000 2.869,17.328 2.869,16.500 L2.869,13.500 C2.869,13.500 2.869,13.500 2.869,13.500 L2.869,12.000 L1.435,12.000 C0.855,12.000 0.331,11.634 0.109,11.074 C-0.112,10.513 0.010,9.869 0.420,9.439 L3.290,6.440 C3.570,6.147 3.937,6.000 4.304,6.000 Z" class="cls-1"/>
</svg>
