<svg xmlns="http://www.w3.org/2000/svg" xmlns:xlink="http://www.w3.org/1999/xlink" preserveAspectRatio="xMidYMid" width="26" height="18.969" viewBox="0 0 26 18.969">
  <defs>
    <style>
      .cls-1 {
        fill: #3e4a43;
        fill-rule: evenodd;
      }
    </style>
  </defs>
  <path d="M22.108,9.311 L25.522,12.711 C25.831,13.018 25.990,13.392 25.999,13.830 C26.007,14.270 25.858,14.642 25.548,14.950 C25.239,15.257 24.866,15.407 24.424,15.398 C23.983,15.390 23.607,15.231 23.299,14.924 L19.912,11.552 L16.499,14.950 C16.181,15.267 15.800,15.422 15.354,15.417 C14.909,15.413 14.531,15.257 14.223,14.950 C13.914,14.643 13.762,14.271 13.766,13.837 C13.770,13.402 13.932,13.027 14.250,12.711 L17.663,9.311 L14.249,5.913 C13.949,5.613 13.797,5.247 13.793,4.812 C13.788,4.377 13.941,4.006 14.249,3.699 C14.549,3.401 14.918,3.252 15.361,3.252 C15.801,3.252 16.171,3.400 16.472,3.699 L19.885,7.099 L23.300,3.699 C23.599,3.401 23.966,3.256 24.398,3.264 C24.830,3.273 25.204,3.435 25.522,3.752 C25.822,4.050 25.972,4.411 25.972,4.832 C25.972,5.253 25.822,5.613 25.522,5.912 L22.108,9.311 ZM10.488,18.774 L5.887,15.025 C5.365,14.600 4.938,13.702 4.938,13.030 L4.938,5.976 C4.938,5.304 5.365,4.406 5.887,3.980 L10.488,0.232 C11.010,-0.194 11.437,0.008 11.437,0.680 L11.437,18.326 C11.437,18.998 11.010,19.200 10.488,18.774 ZM3.029,13.886 L1.213,13.535 C0.550,13.408 0.008,12.753 0.008,12.081 L0.008,6.924 C0.008,6.252 0.550,5.597 1.213,5.470 L3.029,5.120 C3.692,4.992 4.234,5.438 4.234,6.110 L4.234,12.896 C4.234,13.568 3.692,14.013 3.029,13.886 Z" class="cls-1"/>
</svg>
