<svg xmlns="http://www.w3.org/2000/svg" xmlns:xlink="http://www.w3.org/1999/xlink" preserveAspectRatio="xMidYMid" width="18" height="18" viewBox="0 0 18 18">
  <defs>
    <style>
      .cls-1 {
        fill: #3e4a43;
        fill-rule: evenodd;
      }
    </style>
  </defs>
  <path d="M18.000,13.500 L18.000,16.875 C18.000,17.496 17.496,18.000 16.875,18.000 L14.625,18.000 L13.500,18.000 L12.375,18.000 L12.375,18.000 L3.375,18.000 L3.375,18.000 L1.125,18.000 C0.504,18.000 -0.000,17.496 -0.000,16.875 L-0.000,14.625 L-0.000,3.375 L-0.000,2.250 L-0.000,1.125 C-0.000,0.504 0.504,0.000 1.125,0.000 L3.375,0.000 L3.375,0.000 L8.481,0.000 C8.094,0.670 7.875,1.439 7.875,2.250 L4.500,2.250 L4.500,2.250 L2.250,2.250 L2.250,4.500 L2.250,13.500 L2.250,15.750 L4.500,15.750 L4.500,15.750 L12.375,15.750 L12.375,15.750 L14.625,15.750 L15.750,15.750 L15.750,12.375 L15.750,12.375 L15.750,12.094 L18.000,10.406 L18.000,13.500 L18.000,13.500 ZM13.050,9.900 C12.852,10.048 12.613,10.125 12.375,10.125 C12.204,10.125 12.031,10.086 11.872,10.006 C11.491,9.815 11.250,9.426 11.250,9.000 L11.250,7.923 L11.250,7.875 C7.683,7.875 4.674,10.248 3.705,13.500 L3.705,13.500 C3.493,12.787 3.375,12.032 3.375,11.250 L3.375,11.250 C3.375,6.901 6.901,3.375 11.250,3.375 L11.250,2.250 C11.250,1.824 11.491,1.434 11.872,1.244 C12.031,1.164 12.204,1.125 12.375,1.125 C12.613,1.125 12.852,1.201 13.050,1.350 L17.550,4.725 C17.833,4.937 18.000,5.271 18.000,5.625 C18.000,5.979 17.833,6.313 17.550,6.525 L13.050,9.900 Z" class="cls-1"/>
</svg>
