<svg xmlns="http://www.w3.org/2000/svg" xmlns:xlink="http://www.w3.org/1999/xlink" preserveAspectRatio="xMidYMid" width="20" height="18" viewBox="0 0 20 18">
  <defs>
    <style>
      .cls-1 {
        fill: #d07d3c;
        fill-rule: evenodd;
      }
    </style>
  </defs>
  <path d="M17.134,7.335 C16.776,7.703 16.239,7.814 15.772,7.614 C15.305,7.415 15.000,6.945 15.000,6.424 L15.000,5.137 L15.000,5.137 L8.750,5.137 L8.750,15.438 L1.250,15.438 C0.560,15.438 -0.000,14.862 -0.000,14.151 L-0.000,12.863 L6.250,12.863 L6.250,2.562 L13.750,2.562 L15.000,2.562 L15.000,1.274 L15.000,1.274 C15.000,0.753 15.305,0.283 15.772,0.084 C16.239,-0.114 16.776,-0.005 17.134,0.363 L19.634,2.939 C19.878,3.190 20.000,3.520 20.000,3.849 C20.000,4.179 19.878,4.508 19.634,4.759 L17.134,7.335 ZM1.250,5.137 L-0.000,5.137 L-0.000,3.849 C-0.000,3.138 0.560,2.562 1.250,2.562 L2.500,2.562 L3.750,2.562 L3.750,3.849 L3.750,5.137 L2.500,5.137 L1.250,5.137 ZM12.500,12.863 L13.750,12.863 L15.000,12.863 L15.000,11.576 C15.000,11.055 15.305,10.585 15.772,10.386 C16.239,10.187 16.776,10.296 17.134,10.665 L19.634,13.241 C19.878,13.492 20.000,13.821 20.000,14.151 C20.000,14.481 19.878,14.810 19.634,15.061 L17.134,17.637 C16.776,18.004 16.239,18.115 15.772,17.916 C15.305,17.717 15.000,17.247 15.000,16.726 L15.000,16.726 L15.000,15.439 L15.000,15.438 L13.750,15.438 L12.500,15.438 C11.810,15.438 11.250,14.862 11.250,14.151 C11.250,13.440 11.810,12.863 12.500,12.863 Z" class="cls-1"/>
</svg>
